<svg width="512" height="512" viewBox="0 0 512 512" fill="none" xmlns="http://www.w3.org/2000/svg">
  <defs>
    <linearGradient id="bg" x1="64" y1="48" x2="448" y2="464" gradientUnits="userSpaceOnUse">
      <stop offset="0" stop-color="#0B1220"/>
      <stop offset="0.5" stop-color="#111C34"/>
      <stop offset="1" stop-color="#0A6C77"/>
    </linearGradient>

    <radialGradient id="glow" cx="0" cy="0" r="1" gradientUnits="userSpaceOnUse"
      gradientTransform="translate(376 98) rotate(126.573) scale(311.83)">
      <stop offset="0" stop-color="#31D0C6" stop-opacity="0.35"/>
      <stop offset="1" stop-color="#31D0C6" stop-opacity="0"/>
    </radialGradient>

    <linearGradient id="strokeGrad" x1="154" y1="128" x2="360" y2="378" gradientUnits="userSpaceOnUse">
      <stop offset="0" stop-color="#E9FFFB"/>
      <stop offset="0.45" stop-color="#B6FFF4"/>
      <stop offset="1" stop-color="#59E1D7"/>
    </linearGradient>

    <linearGradient id="tailGrad" x1="300" y1="306" x2="407" y2="402" gradientUnits="userSpaceOnUse">
      <stop offset="0" stop-color="#8BFFF2"/>
      <stop offset="1" stop-color="#28C7BA"/>
    </linearGradient>

    <filter id="shadow" x="16" y="16" width="480" height="480" filterUnits="userSpaceOnUse" color-interpolation-filters="sRGB">
      <feDropShadow dx="0" dy="14" stdDeviation="18" flood-color="#020617" flood-opacity="0.38"/>
    </filter>

    <filter id="softGlow" x="90" y="90" width="332" height="332" filterUnits="userSpaceOnUse" color-interpolation-filters="sRGB">
      <feGaussianBlur stdDeviation="10" result="blur"/>
      <feMerge>
        <feMergeNode in="blur"/>
        <feMergeNode in="SourceGraphic"/>
      </feMerge>
    </filter>
  </defs>

  <g filter="url(#shadow)">
    <rect x="32" y="32" width="448" height="448" rx="112" fill="url(#bg)"/>
    <rect x="32" y="32" width="448" height="448" rx="112" fill="url(#glow)"/>
    <rect x="33.5" y="33.5" width="445" height="445" rx="110.5" stroke="white" stroke-opacity="0.07" stroke-width="3"/>
  </g>

  <path d="M96 392C146 358 191 344 250 344C320 344 358 360 416 402" stroke="white" stroke-opacity="0.06" stroke-width="3" stroke-linecap="round"/>

  <g filter="url(#softGlow)" transform="translate(256 246)">
    <g stroke="url(#strokeGrad)" stroke-width="24" stroke-linecap="round" stroke-linejoin="round">
      <path d="M0 -104C36 -104 72 -78 84 -40C95 -5 79 34 46 52C23 64 9 83 9 104" transform="rotate(0)"/>
      <path d="M0 -104C36 -104 72 -78 84 -40C95 -5 79 34 46 52C23 64 9 83 9 104" transform="rotate(60)"/>
      <path d="M0 -104C36 -104 72 -78 84 -40C95 -5 79 34 46 52C23 64 9 83 9 104" transform="rotate(120)"/>
      <path d="M0 -104C36 -104 72 -78 84 -40C95 -5 79 34 46 52C23 64 9 83 9 104" transform="rotate(180)"/>
      <path d="M0 -104C36 -104 72 -78 84 -40C95 -5 79 34 46 52C23 64 9 83 9 104" transform="rotate(240)"/>
      <path d="M0 -104C36 -104 72 -78 84 -40C95 -5 79 34 46 52C23 64 9 83 9 104" transform="rotate(300)"/>
    </g>

    <circle r="41" fill="#0E172A" stroke="#D7FFF9" stroke-opacity="0.92" stroke-width="16"/>
    <circle r="12" fill="#8EFFF4"/>
  </g>

  <path d="M315 324C343 324 370 336 386 356C399 372 406 390 406 410" stroke="url(#tailGrad)" stroke-width="22" stroke-linecap="round"/>
  <path d="M406 410V432" stroke="url(#tailGrad)" stroke-width="18" stroke-linecap="round"/>
  <rect x="388" y="430" width="36" height="20" rx="10" fill="#7EFFF0"/>
  <rect x="394" y="446" width="8" height="20" rx="4" fill="#7EFFF0"/>
  <rect x="410" y="446" width="8" height="20" rx="4" fill="#7EFFF0"/>

  <circle cx="414" cy="466" r="4" fill="#F0A35E"/>
  <circle cx="398" cy="466" r="4" fill="#F0A35E"/>
</svg>
